<svg width="16" height="16" viewBox="0 0 16 16" fill="none" xmlns="http://www.w3.org/2000/svg">
<g clip-path="url(#clip0_102_139)">
<path d="M11.1611 10.639L10.7562 11.0415C10.7562 11.0415 9.79386 11.9983 7.16719 9.38652C4.54054 6.7748 5.50284 5.81797 5.50284 5.81797L5.75777 5.56447C6.38586 4.93999 6.44506 3.93738 5.89706 3.20545L4.77622 1.7082C4.09802 0.802284 2.78752 0.682613 2.01017 1.45554L0.614976 2.84282C0.229536 3.22607 -0.0287571 3.72288 0.00256728 4.27401C0.0827005 5.68397 0.720629 8.71764 4.28031 12.2571C8.05519 16.0105 11.5971 16.1597 13.0456 16.0247C13.5037 15.982 13.9021 15.7487 14.2232 15.4294L15.4859 14.1739C16.3383 13.3263 16.0979 11.8734 15.0074 11.2806L13.3091 10.3574C12.5931 9.96812 11.7207 10.0824 11.1611 10.639Z" fill="black"/>
</g>
<defs>
<clipPath id="clip0_102_139">
<rect width="16" height="16" fill="white"/>
</clipPath>
</defs>
</svg>
