<svg width="105" height="104" viewBox="0 0 105 104" fill="none" xmlns="http://www.w3.org/2000/svg">
<path d="M49.3416 92.9817L48.2959 100.318L45.8902 99.9746C44.2666 99.7431 43.1011 98.9911 43.3481 97.2587C43.5866 95.5856 44.9511 95.0124 46.5252 95.2368L47.5053 95.3765L47.8764 92.7728L49.3416 92.9817ZM47.3402 96.5348L46.4591 96.4092C45.4493 96.2652 44.9035 96.6218 44.7836 97.4633C44.6622 98.3147 45.1559 98.678 46.1657 98.8219L46.9972 98.9405L47.3402 96.5348Z" fill="black"/>
<path d="M35.7095 93.7337L36.2274 93.0731L34.6062 92.3882L34.4936 93.22C34.4058 94.0188 34.2593 94.8796 34.1414 95.6983L34.1874 95.7177C34.6777 95.0455 35.2072 94.3574 35.7095 93.7337ZM39.5699 91.1743L34.503 97.0778L32.9002 96.4006L33.5916 88.6485L35.0194 89.2517L34.759 91.2043L36.9698 92.1383L38.1882 90.5905L39.5699 91.1743Z" fill="black"/>
<path d="M27.0083 84.2084C28.5902 85.4485 28.9755 87.4532 27.4517 89.3971C25.9463 91.3174 23.8206 91.4681 22.2702 90.2527C21.4281 89.5926 21.1295 88.774 21.0541 88.0922L22.2479 87.8337C22.3231 88.3374 22.4871 88.809 23.0144 89.2223C23.9824 89.9812 25.2515 89.7562 26.2324 88.5049C27.2257 87.2378 27.2418 86.0178 26.0927 85.1171C25.8173 84.9012 25.4723 84.7578 25.1959 84.7699L24.2952 85.9189L25.3262 86.7271L24.5797 87.6794L22.5098 86.0568L24.5704 83.4282C25.2662 83.3511 26.1977 83.573 27.0083 84.2084Z" fill="black"/>
<path d="M20.8805 78.6823L14.9406 83.1125L12.2263 79.4732L13.2203 78.7319L15.0498 81.1848L16.4205 80.1624L14.8661 78.0783L15.86 77.3369L17.4145 79.4211L19.0016 78.2373L17.1064 75.6963L18.1004 74.9549L20.8805 78.6823Z" fill="black"/>
<path d="M12.6845 63.3486L6.70652 64.8759L7.22139 66.8912L6.01998 67.1981L4.61894 61.7143L5.82035 61.4073L6.34017 63.442L12.3182 61.9147L12.6845 63.3486Z" fill="black"/>
<path d="M11.2218 51.7144C11.1788 53.6739 9.67953 54.9913 7.2801 54.9386C4.87068 54.8857 3.50067 53.5053 3.5437 51.5457C3.58674 49.5862 5.02604 48.2675 7.42546 48.3202C9.82488 48.3729 11.2649 49.7549 11.2218 51.7144ZM9.94216 51.6863C9.96631 50.5865 8.97193 49.8645 7.39231 49.8298C5.80269 49.7949 4.83755 50.4739 4.8134 51.5736C4.78924 52.6734 5.72364 53.3941 7.31326 53.429C8.89288 53.4637 9.91801 52.786 9.94216 51.6863Z" fill="black"/>
<path d="M12.0271 42.6859L4.95033 40.4888L5.67084 38.1681C6.1571 36.6018 7.08461 35.5705 8.75592 36.0894C10.3699 36.5904 10.7192 38.0287 10.2478 39.5472L9.95421 40.4927L12.4659 41.2725L12.0271 42.6859ZM8.83682 40.1458L9.10071 39.2958C9.40315 38.3216 9.13777 37.7262 8.32599 37.4742C7.50466 37.2192 7.06759 37.6489 6.76516 38.623L6.5161 39.4252L8.83682 40.1458Z" fill="black"/>
<path d="M18.9067 27.6519L13.2664 22.8461L14.8424 20.9964C15.906 19.7481 17.1646 19.1652 18.4967 20.3002C19.7831 21.3962 19.5379 22.8558 18.5067 24.0661L17.8646 24.8196L19.8665 26.5253L18.9067 27.6519ZM16.9741 24.0608L17.5513 23.3834C18.2128 22.607 18.2033 21.9551 17.5563 21.4039C16.9017 20.8461 16.3307 21.0691 15.6692 21.8455L15.1244 22.4848L16.9741 24.0608Z" fill="black"/>
<path d="M25.5597 15.73L25.841 16.5208L27.2866 15.5169L26.6439 14.9771C26.0158 14.4758 25.3667 13.8917 24.7379 13.3544L24.6968 13.3829C25.0027 14.1566 25.3012 14.972 25.5597 15.73ZM25.6586 20.3607L23.3787 12.9225L24.8079 11.93L30.9894 16.6589L29.7162 17.543L28.2054 16.279L26.2341 17.6479L26.8907 19.5051L25.6586 20.3607Z" fill="black"/>
<path d="M38.2615 13.4694C36.3678 14.1433 34.4677 13.3971 33.6396 11.07C32.8217 8.77121 33.8308 6.89428 35.6868 6.23386C36.6949 5.87515 37.5463 6.06046 38.1628 6.36118L37.7431 7.50828C37.2771 7.30257 36.7909 7.18899 36.1597 7.41361C35.0009 7.82595 34.5125 9.01871 35.0455 10.5167C35.5852 12.0335 36.6076 12.6993 37.9831 12.2099C38.3129 12.0925 38.6185 11.8776 38.756 11.6377L38.2666 10.2621L37.0324 10.7013L36.6267 9.56132L39.1045 8.67964L40.2242 11.8264C39.9174 12.4556 39.2319 13.1241 38.2615 13.4694Z" fill="black"/>
<path d="M46.2077 11.245L45.6396 3.85683L50.1662 3.50876L50.2613 4.74511L47.2103 4.97971L47.3414 6.68468L49.9338 6.48534L50.0288 7.72169L47.4365 7.92103L47.5883 9.8952L50.749 9.65216L50.844 10.8885L46.2077 11.245Z" fill="black"/>
<path d="M63.5475 12.5171L65.453 6.64873L63.4746 6.00638L63.8576 4.82699L69.2409 6.57492L68.858 7.75431L66.8606 7.10578L64.9552 12.9742L63.5475 12.5171Z" fill="black"/>
<path d="M74.1611 17.5008C72.5282 16.4167 72.2164 14.4454 73.5438 12.4459C74.8767 10.438 76.7757 10.0183 78.4087 11.1023C80.0416 12.1863 80.3865 14.1077 79.0592 16.1072C77.7318 18.1067 75.794 18.5848 74.1611 17.5008ZM74.869 16.4344C75.7855 17.0427 76.9273 16.5884 77.8011 15.2721C78.6805 13.9474 78.6227 12.7688 77.7063 12.1604C76.7898 11.552 75.6812 11.9563 74.8018 13.281C73.928 14.5974 73.9526 15.826 74.869 16.4344Z" fill="black"/>
<path d="M81.3606 23.0089L87.0009 18.2031L88.5769 20.0527C89.6405 21.3011 90.0162 22.6363 88.6841 23.7713C87.3978 24.8673 85.9956 24.3935 84.9644 23.1833L84.3224 22.4297L82.3205 24.1354L81.3606 23.0089ZM85.2129 21.6709L85.7901 22.3483C86.4517 23.1247 87.0967 23.2188 87.7437 22.6676C88.3983 22.1098 88.2689 21.5107 87.6073 20.7343L87.0626 20.0949L85.2129 21.6709Z" fill="black"/>
<path d="M90.3875 36.8606L97.4643 34.6635L98.1848 36.9842C98.6711 38.5505 98.4907 39.9258 96.8194 40.4447C95.2054 40.9458 94.103 39.9582 93.6316 38.4397L93.3381 37.4942L90.8263 38.274L90.3875 36.8606ZM94.4555 37.1473L94.7193 37.9973C95.0218 38.9714 95.5777 39.3119 96.3895 39.0599C97.2108 38.8049 97.3277 38.2032 97.0252 37.2291L96.7762 36.4268L94.4555 37.1473Z" fill="black"/>
<path d="M96.9058 48.857L96.0871 48.672L96.1625 50.4303L96.9624 50.1758C97.7218 49.913 98.5624 49.6767 99.3527 49.4326L99.3506 49.3827C98.5332 49.2276 97.6845 49.0438 96.9058 48.857ZM92.9396 46.4649L100.444 48.515L100.519 50.2534L93.2178 52.9489L93.1514 51.4003L95.0273 50.7993L94.9244 48.4016L93.0039 47.9635L92.9396 46.4649Z" fill="black"/>
<path d="M92.0247 60.7993C92.4677 58.8387 94.1142 57.6319 96.5235 58.1763C98.9035 58.7141 99.9501 60.5704 99.5159 62.492C99.28 63.5357 98.6683 64.1561 98.0845 64.5163L97.3395 63.5483C97.7625 63.2645 98.1184 62.9144 98.2661 62.2608C98.5372 61.0611 97.7903 60.0106 96.2394 59.6602C94.669 59.3053 93.5598 59.8134 93.238 61.2375C93.1609 61.5789 93.179 61.952 93.3083 62.1965L94.7324 62.5183L95.0212 61.2405L96.2014 61.5072L95.6217 64.0726L92.3639 63.3364C91.9961 62.7407 91.7977 61.8039 92.0247 60.7993Z" fill="black"/>
<path d="M89.6562 68.7033L96.2036 72.1732L94.0776 76.1847L92.9819 75.604L94.4149 72.9003L92.904 72.0995L91.6864 74.3968L90.5908 73.8161L91.8083 71.5188L90.0588 70.5916L88.5744 73.3926L87.4787 72.8119L89.6562 68.7033Z" fill="black"/>
<path d="M79.3106 82.6772L83.2511 87.425L84.8517 86.0965L85.6436 87.0507L81.2883 90.6655L80.4964 89.7114L82.1123 88.3702L78.1717 83.6224L79.3106 82.6772Z" fill="black"/>
<path d="M69.4245 88.982C71.2136 88.1816 73.0462 88.9722 74.0263 91.1629C75.0105 93.3628 74.3499 95.1921 72.5607 95.9925C70.7716 96.7929 68.9635 96.0571 67.9834 93.8663C67.0034 91.6756 67.6354 89.7824 69.4245 88.982ZM69.9472 90.1504C68.9431 90.5996 68.7166 91.8074 69.3618 93.2497C70.0111 94.7011 71.038 95.2824 72.0421 94.8332C73.0462 94.384 73.2972 93.231 72.6479 91.7796C72.0027 90.3373 70.9513 89.7012 69.9472 90.1504Z" fill="black"/>
<path d="M60.9203 92.1213L61.966 99.4572L59.5603 99.8001C57.9368 100.032 56.6075 99.6351 56.3606 97.9026C56.1221 96.2296 57.2721 95.2979 58.8462 95.0736L59.8263 94.9339L59.4551 92.3302L60.9203 92.1213ZM59.9914 96.0921L59.1103 96.2177C58.1005 96.3617 57.6761 96.8565 57.796 97.698C57.9174 98.5494 58.4929 98.7603 59.5027 98.6164L60.3343 98.4978L59.9914 96.0921Z" fill="black"/>
</svg>
